<svg
width="45"
height="45"
view-box="0 0 62 62"
fill="none"
xmlns="http://www.w3.org/2000/svg"
>
<g clip-path="url(#clip0_168_52647)">
  <path
    d="M31.1326 59.4229C47.0821 59.4229 60.0118 46.4933 60.0118 30.5437C60.0118 14.5942 47.0821 1.66451 31.1326 1.66451C25.1112 1.66451 19.5202 3.50734 14.8929 6.65977C14.6408 6.15741 14.3036 5.70515 13.9002 5.32189C18.8052 1.96414 24.7395 0 31.1326 0C48.0014 0 61.6763 13.6749 61.6763 30.5437C61.6763 47.4126 48.0014 61.0874 31.1326 61.0874C14.2638 61.0874 0.588867 47.4126 0.588867 30.5437C0.588867 23.5468 2.94155 17.0994 6.89899 11.9495C7.26035 12.3739 7.69388 12.735 8.18061 13.0137C4.46239 17.8745 2.25338 23.9512 2.25338 30.5437C2.25338 46.4933 15.183 59.4229 31.1326 59.4229Z"
    fill="currentColor"
  />
  <path
    d="M12.9067 8.82201C12.9067 10.109 11.8634 11.1523 10.5764 11.1523C9.28941 11.1523 8.24609 10.109 8.24609 8.82201C8.24609 7.53502 9.28941 6.4917 10.5764 6.4917C11.8634 6.4917 12.9067 7.53502 12.9067 8.82201Z"
    fill="currentColor"
  />
</g>
<defs>
  <clipPath id="clip0_168_52647">
    <rect
      width="61.503"
      height="61.0874"
      fill="currentColor"
      transform="translate(0.49707)"
    />
  </clipPath>
</defs>
</svg>