<svg width="130" height="78" viewBox="0 0 65 39" fill="none" xmlns="http://www.w3.org/2000/svg">
<path d="M0 33.1034C2.44131 36.5305 6.36863 39 12.0473 39C18.2567 39 22.3963 35.6233 22.3963 31.1379C22.3963 27.7613 20.1673 24.8886 14.9132 23.2759L10.7736 22.0159C9.28758 21.5623 8.27922 20.8064 8.27922 19.5968C8.27922 18.3873 9.49987 17.3793 11.5697 17.3793C13.9048 17.3793 15.8685 18.8408 16.8238 20.0504L21.2818 16.5225C19.5835 14.3554 16.0277 12.0371 11.4105 12.0371C5.67869 12.0371 1.75137 15.6154 1.75137 19.5968C1.75137 22.7719 3.98039 25.695 8.4915 27.1565L12.2065 28.366C15.0193 29.2732 15.8685 30.1804 15.8685 31.3395C15.8685 32.7003 14.4886 33.6578 12.0473 33.6578C9.0753 33.6578 6.84628 32.4987 4.7234 29.8276L0 33.1034Z" fill="#333333"/>
<path d="M26.519 4.77984C26.519 6.84615 28.2703 8.61008 30.4993 8.61008C32.6753 8.61008 34.4797 6.84615 34.4797 4.77984C34.4797 2.71353 32.6753 1 30.4993 1C28.2703 1 26.519 2.71353 26.519 4.77984ZM27.1558 38.244H33.8429V12.7931H27.1558V38.244Z" fill="#333333"/>
<path d="M62.025 26.5L62.025 36.025L51 36.025C45.4633 36.025 40.975 31.5367 40.975 26C40.975 20.4633 45.4633 15.975 51 15.975L51.5 15.975C57.3128 15.975 62.025 20.6872 62.025 26.5Z" stroke="#333333" stroke-width="5.95"/>
</svg>
