<?xml version="1.0" standalone="no"?>
<!DOCTYPE svg PUBLIC "-//W3C//DTD SVG 20010904//EN"
 "http://www.w3.org/TR/2001/REC-SVG-20010904/DTD/svg10.dtd">
<svg version="1.0" xmlns="http://www.w3.org/2000/svg"
 width="700.000000pt" height="700.000000pt" viewBox="0 0 700.000000 700.000000"
 preserveAspectRatio="xMidYMid meet">
<metadata>
Created by potrace 1.14, written by Peter Selinger 2001-2017
</metadata>
<g transform="translate(0.000000,700.000000) scale(0.100000,-0.100000)"
fill="#000000" stroke="none">
<path d="M3427 6974 c-1 -1 -60 -4 -132 -8 -71 -3 -141 -8 -155 -10 -14 -2
-51 -7 -84 -11 -32 -4 -68 -8 -80 -10 -165 -29 -219 -39 -321 -64 -335 -83
-706 -239 -995 -419 -99 -62 -97 -53 -28 -143 l61 -79 31 19 c150 92 210 126
313 175 65 32 126 62 135 67 35 18 215 87 308 117 227 74 486 126 735 149 156
14 499 8 655 -11 107 -13 165 -22 210 -31 139 -28 200 -41 290 -67 757 -211
1411 -688 1858 -1355 34 -50 62 -96 62 -101 0 -6 4 -12 8 -14 22 -9 183 -330
245 -488 85 -217 156 -473 182 -650 9 -66 16 -107 20 -125 27 -136 27 -741 0
-845 -2 -8 -7 -38 -10 -67 -5 -42 -41 -226 -60 -305 -73 -311 -236 -688 -422
-976 -224 -347 -515 -654 -847 -893 -429 -308 -930 -511 -1441 -585 -22 -3
-50 -7 -63 -9 -165 -27 -636 -27 -822 1 -146 21 -291 50 -403 78 -639 165
-1212 519 -1652 1021 -284 324 -500 700 -642 1119 -37 112 -93 319 -107 396
-2 14 -9 52 -15 85 -6 33 -13 83 -17 110 -3 28 -8 58 -10 68 -22 120 -22 679
1 750 2 7 6 37 10 67 10 93 34 220 66 349 85 343 216 647 420 978 l20 31 -78
61 c-43 34 -80 61 -83 61 -5 0 -98 -150 -140 -225 -181 -323 -329 -737 -385
-1070 -9 -55 -18 -113 -21 -130 -3 -16 -7 -46 -9 -65 -2 -19 -7 -66 -12 -105
-16 -139 -8 -651 11 -750 2 -12 7 -48 11 -80 4 -33 11 -76 15 -95 5 -19 11
-51 14 -70 10 -62 16 -88 46 -206 94 -364 259 -734 463 -1039 61 -90 184 -260
209 -286 7 -8 42 -48 77 -89 516 -599 1253 -1013 2041 -1145 339 -57 726 -64
1035 -20 22 3 56 7 75 10 181 23 601 135 741 198 19 8 87 38 151 66 428 187
805 459 1150 830 101 109 117 129 215 261 51 69 97 130 101 135 9 12 111 176
139 225 186 317 348 764 407 1122 7 42 25 169 31 213 25 202 25 560 0 790 -12
107 -38 261 -66 385 -6 25 -12 52 -14 60 -20 95 -147 475 -166 494 -5 6 -9 16
-9 24 0 22 -135 290 -210 416 -469 789 -1229 1362 -2114 1595 -121 32 -351 77
-443 86 -32 3 -69 8 -83 10 -47 8 -416 25 -423 19z"/>
<path d="M1010 6211 c-94 -31 -178 -104 -218 -189 -23 -48 -27 -71 -27 -142 1
-103 29 -174 96 -240 213 -208 570 -66 580 230 5 133 -79 269 -198 322 -52 22
-188 34 -233 19z"/>
<path d="M3320 5188 c-503 -53 -973 -334 -1241 -743 -77 -119 -93 -147 -137
-242 -148 -322 -194 -692 -127 -1029 9 -43 18 -90 21 -104 3 -14 21 -72 41
-130 146 -431 470 -797 879 -990 148 -71 331 -128 460 -146 27 -3 58 -9 69
-12 11 -3 447 -7 968 -9 l948 -4 -4 943 c-2 519 -6 959 -10 978 -4 19 -9 49
-11 65 -72 454 -369 903 -769 1163 -139 89 -407 204 -532 226 -16 3 -41 8 -55
11 -64 12 -78 15 -120 21 -70 9 -297 11 -380 2z m300 -683 c385 -44 728 -329
848 -705 46 -142 48 -184 48 -775 l-1 -560 -555 1 c-305 0 -573 3 -595 6 -242
36 -429 129 -597 298 -200 201 -296 435 -296 720 -1 176 29 303 109 465 148
298 477 525 798 551 42 4 77 7 79 9 3 3 97 -3 162 -10z"/>
</g>
</svg>
