<svg width="847" height="25" viewBox="0 -5 847 25" fill="none" xmlns="http://www.w3.org/2000/svg">
<g opacity="0.1">
<path fill-rule="evenodd" clip-rule="evenodd" d="M19.428 4.78336C15.3969 2.84169 9.74374 0.869502 -1.08594 0.869502V-0.869629C9.99743 -0.869629 15.9094 1.15818 20.1827 3.21652C21.1739 3.69396 22.0555 4.15829 22.8758 4.59039C25.6322 6.04225 27.698 7.13037 30.9141 7.13037C35.0378 7.13037 37.5596 5.57364 40.3062 3.87824L40.3921 3.82518C43.1966 2.09428 46.2218 0.260806 51.1749 0.260806C55.9895 0.260806 58.3905 0.991673 60.6402 1.75838C60.7606 1.79942 60.8804 1.84049 61 1.88148C63.0309 2.57768 64.9997 3.25257 68.8585 3.39181C70.8849 3.46493 72.2847 3.2448 73.4087 2.89347C74.4485 2.56848 75.2784 2.12564 76.2217 1.62233C76.3117 1.57429 76.4028 1.52571 76.4951 1.47662C77.5493 0.916405 78.7275 0.319522 80.346 -0.129432C81.9617 -0.577596 83.9822 -0.869629 86.7401 -0.869629V0.869502C84.1068 0.869502 82.2468 1.14812 80.8109 1.54642C79.3778 1.94394 78.3331 2.46933 77.3112 3.01237C77.2175 3.06219 77.1236 3.1124 77.0292 3.16284C76.1007 3.65904 75.1309 4.17726 73.9276 4.55341C72.5869 4.97246 70.9867 5.20886 68.7958 5.12981C64.6804 4.98132 62.5219 4.24152 60.4341 3.52593C60.3157 3.48535 60.1975 3.44485 60.0792 3.40454C57.9594 2.68212 55.7516 1.99994 51.1749 1.99994C46.7368 1.99994 44.0663 3.60125 41.3056 5.30513C41.2561 5.33563 41.2067 5.36616 41.1572 5.39673C38.4168 7.08897 35.5335 8.8695 30.9141 8.8695C27.2309 8.8695 24.7098 7.53616 21.8723 6.03549C21.0917 5.62269 20.2872 5.19722 19.428 4.78336Z" fill="currentColor"/>
<path fill-rule="evenodd" clip-rule="evenodd" d="M107.254 4.78336C103.223 2.84169 97.5699 0.869502 86.7402 0.869502V-0.869629C97.8236 -0.869629 103.736 1.15818 108.009 3.21652C109 3.69396 109.882 4.15829 110.702 4.59039C113.458 6.04225 115.524 7.13037 118.74 7.13037C122.864 7.13037 125.386 5.57364 128.132 3.87824L128.218 3.82518C131.023 2.09428 134.048 0.260806 139.001 0.260806C143.816 0.260806 146.217 0.991673 148.466 1.75838C148.587 1.79942 148.707 1.84049 148.826 1.88148C150.857 2.57768 152.826 3.25257 156.685 3.39181C158.711 3.46493 160.111 3.2448 161.235 2.89347C162.275 2.56848 163.105 2.12564 164.048 1.62233C164.138 1.57429 164.229 1.52571 164.321 1.47662C165.376 0.916405 166.554 0.319522 168.172 -0.129432C169.788 -0.577596 171.808 -0.869629 174.566 -0.869629V0.869502C171.933 0.869502 170.073 1.14812 168.637 1.54642C167.204 1.94394 166.159 2.46933 165.137 3.01237C165.044 3.06219 164.95 3.1124 164.855 3.16284C163.927 3.65904 162.957 4.17726 161.754 4.55341C160.413 4.97246 158.813 5.20886 156.622 5.12981C152.507 4.98132 150.348 4.24152 148.26 3.52593C148.142 3.48535 148.024 3.44485 147.905 3.40454C145.786 2.68212 143.578 1.99994 139.001 1.99994C134.563 1.99994 131.892 3.60125 129.132 5.30513C129.082 5.33563 129.033 5.36616 128.983 5.39673C126.243 7.08897 123.36 8.8695 118.74 8.8695C115.057 8.8695 112.536 7.53616 109.698 6.03549C108.918 5.62269 108.113 5.19722 107.254 4.78336Z" fill="currentColor"/>
<path fill-rule="evenodd" clip-rule="evenodd" d="M195.08 4.78336C191.049 2.84169 185.396 0.869502 174.566 0.869502V-0.869629C185.65 -0.869629 191.562 1.15818 195.835 3.21652C196.826 3.69396 197.708 4.15829 198.528 4.59039C201.285 6.04225 203.35 7.13037 206.566 7.13037C210.69 7.13037 213.212 5.57364 215.959 3.87824L216.044 3.82518C218.849 2.09428 221.874 0.260806 226.827 0.260806C231.642 0.260806 234.043 0.991673 236.293 1.75838C236.413 1.79942 236.533 1.84049 236.652 1.88148C238.683 2.57768 240.652 3.25257 244.511 3.39181C246.537 3.46493 247.937 3.2448 249.061 2.89347C250.101 2.56848 250.931 2.12564 251.874 1.62233C251.964 1.57429 252.055 1.52571 252.147 1.47662C253.202 0.916405 254.38 0.319522 255.998 -0.129432C257.614 -0.577596 259.635 -0.869629 262.392 -0.869629V0.869502C259.759 0.869502 257.899 1.14812 256.463 1.54642C255.03 1.94394 253.985 2.46933 252.964 3.01237C252.87 3.06219 252.776 3.1124 252.682 3.16284C251.753 3.65904 250.783 4.17726 249.58 4.55341C248.239 4.97246 246.639 5.20886 244.448 5.12981C240.333 4.98132 238.174 4.24152 236.086 3.52593C235.968 3.48535 235.85 3.44485 235.732 3.40454C233.612 2.68212 231.404 1.99994 226.827 1.99994C222.389 1.99994 219.719 3.60125 216.958 5.30513C216.908 5.33563 216.859 5.36616 216.81 5.39673C214.069 7.08897 211.186 8.8695 206.566 8.8695C202.883 8.8695 200.362 7.53616 197.525 6.03549C196.744 5.62269 195.94 5.19722 195.08 4.78336Z" fill="currentColor"/>
<path fill-rule="evenodd" clip-rule="evenodd" d="M282.907 4.78336C278.875 2.84169 273.222 0.869502 262.393 0.869502V-0.869629C273.476 -0.869629 279.388 1.15818 283.661 3.21652C284.652 3.69396 285.534 4.15829 286.354 4.59039C289.111 6.04225 291.177 7.13037 294.393 7.13037C298.516 7.13037 301.038 5.57364 303.785 3.87824L303.871 3.82518C306.675 2.09428 309.7 0.260806 314.653 0.260806C319.468 0.260806 321.869 0.991673 324.119 1.75838C324.239 1.79942 324.359 1.84049 324.479 1.88148C326.509 2.57768 328.478 3.25257 332.337 3.39181C334.363 3.46493 335.763 3.2448 336.887 2.89347C337.927 2.56848 338.757 2.12564 339.7 1.62233C339.79 1.57429 339.881 1.52571 339.974 1.47662C341.028 0.916405 342.206 0.319522 343.825 -0.129432C345.44 -0.577596 347.461 -0.869629 350.219 -0.869629V0.869502C347.585 0.869502 345.725 1.14812 344.289 1.54642C342.856 1.94394 341.812 2.46933 340.79 3.01237C340.696 3.06219 340.602 3.1124 340.508 3.16284C339.579 3.65904 338.609 4.17726 337.406 4.55341C336.065 4.97246 334.465 5.20886 332.274 5.12981C328.159 4.98132 326 4.24152 323.913 3.52593C323.794 3.48535 323.676 3.44485 323.558 3.40454C321.438 2.68212 319.23 1.99994 314.653 1.99994C310.215 1.99994 307.545 3.60125 304.784 5.30513C304.735 5.33563 304.685 5.36616 304.636 5.39673C301.895 7.08897 299.012 8.8695 294.393 8.8695C290.709 8.8695 288.188 7.53616 285.351 6.03549C284.57 5.62269 283.766 5.19722 282.907 4.78336Z" fill="currentColor"/>
<path fill-rule="evenodd" clip-rule="evenodd" d="M370.428 4.78336C366.397 2.84169 360.744 0.869502 349.914 0.869502V-0.869629C360.997 -0.869629 366.909 1.15818 371.183 3.21652C372.174 3.69396 373.055 4.15829 373.876 4.59039C376.632 6.04225 378.698 7.13037 381.914 7.13037C386.038 7.13037 388.56 5.57364 391.306 3.87824L391.392 3.82518C394.197 2.09428 397.222 0.260806 402.175 0.260806C406.99 0.260806 409.39 0.991673 411.64 1.75838C411.761 1.79942 411.88 1.84049 412 1.88148C414.031 2.57768 416 3.25257 419.858 3.39181C421.885 3.46493 423.285 3.2448 424.409 2.89347C425.448 2.56848 426.278 2.12564 427.222 1.62233C427.312 1.57429 427.403 1.52571 427.495 1.47662C428.549 0.916405 429.727 0.319522 431.346 -0.129432C432.962 -0.577596 434.982 -0.869629 437.74 -0.869629V0.869502C435.107 0.869502 433.247 1.14812 431.811 1.54642C430.378 1.94394 429.333 2.46933 428.311 3.01237C428.218 3.06219 428.124 3.1124 428.029 3.16284C427.101 3.65904 426.131 4.17726 424.928 4.55341C423.587 4.97246 421.987 5.20886 419.796 5.12981C415.68 4.98132 413.522 4.24152 411.434 3.52593C411.316 3.48535 411.197 3.44485 411.079 3.40454C408.959 2.68212 406.752 1.99994 402.175 1.99994C397.737 1.99994 395.066 3.60125 392.306 5.30513C392.256 5.33563 392.207 5.36616 392.157 5.39673C389.417 7.08897 386.534 8.8695 381.914 8.8695C378.231 8.8695 375.71 7.53616 372.872 6.03549C372.092 5.62269 371.287 5.19722 370.428 4.78336Z" fill="currentColor"/>
<path fill-rule="evenodd" clip-rule="evenodd" d="M457.95 4.78336C453.918 2.84169 448.265 0.869502 437.436 0.869502V-0.869629C448.519 -0.869629 454.431 1.15818 458.704 3.21652C459.695 3.69396 460.577 4.15829 461.397 4.59039C464.154 6.04225 466.219 7.13037 469.436 7.13037C473.559 7.13037 476.081 5.57364 478.828 3.87824L478.914 3.82518C481.718 2.09428 484.743 0.260806 489.696 0.260806C494.511 0.260806 496.912 0.991673 499.162 1.75838C499.282 1.79942 499.402 1.84049 499.522 1.88148C501.552 2.57768 503.521 3.25257 507.38 3.39181C509.406 3.46493 510.806 3.2448 511.93 2.89347C512.97 2.56848 513.8 2.12564 514.743 1.62233C514.833 1.57429 514.924 1.52571 515.017 1.47662C516.071 0.916405 517.249 0.319522 518.868 -0.129432C520.483 -0.577596 522.504 -0.869629 525.262 -0.869629V0.869502C522.628 0.869502 520.768 1.14812 519.332 1.54642C517.899 1.94394 516.855 2.46933 515.833 3.01237C515.739 3.06219 515.645 3.1124 515.551 3.16284C514.622 3.65904 513.652 4.17726 512.449 4.55341C511.108 4.97246 509.508 5.20886 507.317 5.12981C503.202 4.98132 501.043 4.24152 498.956 3.52593C498.837 3.48535 498.719 3.44485 498.601 3.40454C496.481 2.68212 494.273 1.99994 489.696 1.99994C485.258 1.99994 482.588 3.60125 479.827 5.30513C479.778 5.33563 479.728 5.36616 479.679 5.39673C476.938 7.08897 474.055 8.8695 469.436 8.8695C465.752 8.8695 463.231 7.53616 460.394 6.03549C459.613 5.62269 458.809 5.19722 457.95 4.78336Z" fill="currentColor"/>
<path fill-rule="evenodd" clip-rule="evenodd" d="M545.471 4.78336C541.44 2.84169 535.787 0.869502 524.958 0.869502V-0.869629C536.041 -0.869629 541.953 1.15818 546.226 3.21652C547.217 3.69396 548.099 4.15829 548.919 4.59039C551.676 6.04225 553.741 7.13037 556.958 7.13037C561.081 7.13037 563.603 5.57364 566.35 3.87824L566.436 3.82518C569.24 2.09428 572.265 0.260806 577.218 0.260806C582.033 0.260806 584.434 0.991673 586.684 1.75838C586.804 1.79942 586.924 1.84049 587.043 1.88148C589.074 2.57768 591.043 3.25257 594.902 3.39181C596.928 3.46493 598.328 3.2448 599.452 2.89347C600.492 2.56848 601.322 2.12564 602.265 1.62233C602.355 1.57429 602.446 1.52571 602.539 1.47662C603.593 0.916405 604.771 0.319522 606.389 -0.129432C608.005 -0.577596 610.026 -0.869629 612.784 -0.869629V0.869502C610.15 0.869502 608.29 1.14812 606.854 1.54642C605.421 1.94394 604.377 2.46933 603.355 3.01237C603.261 3.06219 603.167 3.1124 603.073 3.16284C602.144 3.65904 601.174 4.17726 599.971 4.55341C598.63 4.97246 597.03 5.20886 594.839 5.12981C590.724 4.98132 588.565 4.24152 586.478 3.52593C586.359 3.48535 586.241 3.44485 586.123 3.40454C584.003 2.68212 581.795 1.99994 577.218 1.99994C572.78 1.99994 570.11 3.60125 567.349 5.30513C567.3 5.33563 567.25 5.36616 567.201 5.39673C564.46 7.08897 561.577 8.8695 556.958 8.8695C553.274 8.8695 550.753 7.53616 547.916 6.03549C547.135 5.62269 546.331 5.19722 545.471 4.78336Z" fill="currentColor"/>
<path fill-rule="evenodd" clip-rule="evenodd" d="M632.993 4.78336C628.962 2.84169 623.309 0.869502 612.479 0.869502V-0.869629C623.563 -0.869629 629.475 1.15818 633.748 3.21652C634.739 3.69396 635.621 4.15829 636.441 4.59039C639.198 6.04225 641.263 7.13037 644.48 7.13037C648.603 7.13037 651.125 5.57364 653.872 3.87824L653.958 3.82518C656.762 2.09428 659.787 0.260806 664.74 0.260806C669.555 0.260806 671.956 0.991673 674.206 1.75838C674.326 1.79942 674.446 1.84049 674.565 1.88148C676.596 2.57768 678.565 3.25257 682.424 3.39181C684.45 3.46493 685.85 3.2448 686.974 2.89347C688.014 2.56848 688.844 2.12564 689.787 1.62233C689.877 1.57429 689.968 1.52571 690.061 1.47662C691.115 0.916405 692.293 0.319522 693.911 -0.129432C695.527 -0.577596 697.548 -0.869629 700.306 -0.869629V0.869502C697.672 0.869502 695.812 1.14812 694.376 1.54642C692.943 1.94394 691.899 2.46933 690.877 3.01237C690.783 3.06219 690.689 3.1124 690.595 3.16284C689.666 3.65904 688.696 4.17726 687.493 4.55341C686.152 4.97246 684.552 5.20886 682.361 5.12981C678.246 4.98132 676.087 4.24152 673.999 3.52593C673.881 3.48535 673.763 3.44485 673.645 3.40454C671.525 2.68212 669.317 1.99994 664.74 1.99994C660.302 1.99994 657.632 3.60125 654.871 5.30513C654.822 5.33563 654.772 5.36616 654.723 5.39673C651.982 7.08897 649.099 8.8695 644.48 8.8695C640.796 8.8695 638.275 7.53616 635.438 6.03549C634.657 5.62269 633.853 5.19722 632.993 4.78336Z" fill="currentColor"/>
<path fill-rule="evenodd" clip-rule="evenodd" d="M720.515 4.78336C716.484 2.84169 710.831 0.869502 700.001 0.869502V-0.869629C711.084 -0.869629 716.996 1.15818 721.27 3.21652C722.261 3.69396 723.142 4.15829 723.963 4.59039C726.719 6.04225 728.785 7.13037 732.001 7.13037C736.125 7.13037 738.647 5.57364 741.393 3.87824L741.479 3.82518C744.284 2.09428 747.309 0.260806 752.262 0.260806C757.076 0.260806 759.477 0.991673 761.727 1.75838C761.848 1.79942 761.967 1.84049 762.087 1.88148C764.118 2.57768 766.087 3.25257 769.945 3.39181C771.972 3.46493 773.372 3.2448 774.496 2.89347C775.535 2.56848 776.365 2.12564 777.309 1.62233C777.399 1.57429 777.49 1.52571 777.582 1.47662C778.636 0.916405 779.814 0.319522 781.433 -0.129432C783.049 -0.577596 785.069 -0.869629 787.827 -0.869629V0.869502C785.194 0.869502 783.334 1.14812 781.898 1.54642C780.465 1.94394 779.42 2.46933 778.398 3.01237C778.304 3.06219 778.21 3.1124 778.116 3.16284C777.188 3.65904 776.218 4.17726 775.014 4.55341C773.674 4.97246 772.074 5.20886 769.883 5.12981C765.767 4.98132 763.609 4.24152 761.521 3.52593C761.403 3.48535 761.284 3.44485 761.166 3.40454C759.046 2.68212 756.839 1.99994 752.262 1.99994C747.824 1.99994 745.153 3.60125 742.392 5.30513C742.343 5.33563 742.294 5.36616 742.244 5.39673C739.504 7.08897 736.62 8.8695 732.001 8.8695C728.318 8.8695 725.797 7.53616 722.959 6.03549C722.179 5.62269 721.374 5.19722 720.515 4.78336Z" fill="currentColor"/>
<path fill-rule="evenodd" clip-rule="evenodd" d="M808.036 4.78336C804.005 2.84169 798.352 0.869502 787.522 0.869502V-0.869629C798.606 -0.869629 804.518 1.15818 808.791 3.21652C809.782 3.69396 810.664 4.15829 811.484 4.59039C814.241 6.04225 816.306 7.13037 819.522 7.13037C823.646 7.13037 826.168 5.57364 828.915 3.87824L829.001 3.82518C831.805 2.09428 834.83 0.260806 839.783 0.260806C844.598 0.260806 846.999 0.991673 849.249 1.75838C849.369 1.79942 849.489 1.84049 849.608 1.88148C851.639 2.57768 853.608 3.25257 857.467 3.39181C859.493 3.46493 860.893 3.2448 862.017 2.89347C863.057 2.56848 863.887 2.12564 864.83 1.62233C864.92 1.57429 865.011 1.52571 865.104 1.47662C866.158 0.916405 867.336 0.319522 868.954 -0.129432C870.57 -0.577596 872.591 -0.869629 875.349 -0.869629V0.869502C872.715 0.869502 870.855 1.14812 869.419 1.54642C867.986 1.94394 866.942 2.46933 865.92 3.01237C865.826 3.06219 865.732 3.1124 865.638 3.16284C864.709 3.65904 863.739 4.17726 862.536 4.55341C861.195 4.97246 859.595 5.20886 857.404 5.12981C853.289 4.98132 851.13 4.24152 849.042 3.52593C848.924 3.48535 848.806 3.44485 848.688 3.40454C846.568 2.68212 844.36 1.99994 839.783 1.99994C835.345 1.99994 832.675 3.60125 829.914 5.30513C829.865 5.33563 829.815 5.36616 829.766 5.39673C827.025 7.08897 824.142 8.8695 819.522 8.8695C815.839 8.8695 813.318 7.53616 810.481 6.03549C809.7 5.62269 808.896 5.19722 808.036 4.78336Z" fill="currentColor"/>
</g>
</svg>
